<svg xmlns="http://www.w3.org/2000/svg" width="484" height="410" fill="none" viewBox="0 0 484 410"><g filter="url(#filter0_dddd_25131_282793)"><path fill="#fff" d="M14 12C14 8.68628 16.6863 6 20 6H464C467.314 6 470 8.68629 470 12V375C470 378.314 467.314 381 464 381H20C16.6863 381 14 378.314 14 375V12Z"/><g opacity=".3"><path fill="#D6BF57" d="M206.931 53.1049C206.931 62.6388 199.221 70.3676 189.71 70.3676C180.198 70.3676 172.488 62.6388 172.488 53.1049C172.488 43.571 180.198 35.8423 189.71 35.8423C199.221 35.8423 206.931 43.571 206.931 53.1049Z"/><path fill="#54B399" d="M172.488 123.949V106.54L206.931 80.4283L229.893 97.8364L287.298 54.3162L310.26 71.7242V123.949H172.488Z"/></g><rect width="195.377" height="28.421" x="144" y="144" fill="#D3DAE6" rx="6"/><rect width="137.772" height="28.421" x="172.488" y="263.95" fill="#07C" rx="6"/><rect width="59.654" height="5.684" x="211.547" y="275.319" fill="#fff" rx="2.842"/><path fill="#FAFBFD" d="M14 317H470V375C470 378.314 467.314 381 464 381H20C16.6863 381 14 378.314 14 375V317Z"/><rect width="241.882" height="17.053" x="121" y="340" fill="#D3DAE6" rx="4"/><rect width="294.718" height="17.053" x="94" y="189" fill="#D3DAE6" rx="4"/><rect width="213" height="17" x="132.985" y="222.393" fill="#D3DAE6" rx="4"/></g><defs><filter id="filter0_dddd_25131_282793" width="484" height="409.3" x="0" y=".7" color-interpolation-filters="sRGB" filterUnits="userSpaceOnUse"><feFlood flood-opacity="0" result="BackgroundImageFix"/><feColorMatrix in="SourceAlpha" result="hardAlpha" type="matrix" values="0 0 0 0 0 0 0 0 0 0 0 0 0 0 0 0 0 0 127 0"/><feMorphology in="SourceAlpha" operator="erode" radius="1" result="effect1_dropShadow_25131_282793"/><feOffset dy="15"/><feGaussianBlur stdDeviation="7.5"/><feColorMatrix type="matrix" values="0 0 0 0 0 0 0 0 0 0 0 0 0 0 0 0 0 0 0.04 0"/><feBlend in2="BackgroundImageFix" mode="normal" result="effect1_dropShadow_25131_282793"/><feColorMatrix in="SourceAlpha" result="hardAlpha" type="matrix" values="0 0 0 0 0 0 0 0 0 0 0 0 0 0 0 0 0 0 127 0"/><feMorphology in="SourceAlpha" operator="erode" radius="1" result="effect2_dropShadow_25131_282793"/><feOffset dy="5.7"/><feGaussianBlur stdDeviation="6"/><feColorMatrix type="matrix" values="0 0 0 0 0 0 0 0 0 0 0 0 0 0 0 0 0 0 0.05 0"/><feBlend in2="effect1_dropShadow_25131_282793" mode="normal" result="effect2_dropShadow_25131_282793"/><feColorMatrix in="SourceAlpha" result="hardAlpha" type="matrix" values="0 0 0 0 0 0 0 0 0 0 0 0 0 0 0 0 0 0 127 0"/><feMorphology in="SourceAlpha" operator="erode" radius="1" result="effect3_dropShadow_25131_282793"/><feOffset dy="2.6"/><feGaussianBlur stdDeviation="4"/><feColorMatrix type="matrix" values="0 0 0 0 0 0 0 0 0 0 0 0 0 0 0 0 0 0 0.06 0"/><feBlend in2="effect2_dropShadow_25131_282793" mode="normal" result="effect3_dropShadow_25131_282793"/><feColorMatrix in="SourceAlpha" result="hardAlpha" type="matrix" values="0 0 0 0 0 0 0 0 0 0 0 0 0 0 0 0 0 0 127 0"/><feMorphology in="SourceAlpha" operator="erode" radius="1" result="effect4_dropShadow_25131_282793"/><feOffset dy=".9"/><feGaussianBlur stdDeviation="2"/><feColorMatrix type="matrix" values="0 0 0 0 0 0 0 0 0 0 0 0 0 0 0 0 0 0 0.08 0"/><feBlend in2="effect3_dropShadow_25131_282793" mode="normal" result="effect4_dropShadow_25131_282793"/><feBlend in="SourceGraphic" in2="effect4_dropShadow_25131_282793" mode="normal" result="shape"/></filter></defs></svg>